<svg id="svg" version="1.1" xmlns="http://www.w3.org/2000/svg" xmlns:xlink="http://www.w3.org/1999/xlink" width="400" height="400" viewBox="0, 0, 400,400"><g id="svgg"><path id="path0" d="M120.000 40.200 L 120.000 60.400 209.800 60.400 L 299.600 60.400 299.600 200.000 L 299.600 339.600 209.800 339.600 L 120.000 339.600 120.000 359.800 L 120.000 380.000 229.957 380.000 C 329.855 380.000,339.937 379.942,340.157 379.367 C 340.291 379.019,340.400 342.929,340.400 299.167 L 340.400 219.600 369.800 219.600 L 399.200 219.600 399.200 200.003 L 399.200 180.405 369.900 180.303 L 340.600 180.200 340.398 100.200 C 340.286 56.200,340.151 20.155,340.098 20.100 C 340.044 20.045,290.500 20.000,230.000 20.000 L 120.000 20.000 120.000 40.200 M59.787 100.099 C 59.683 100.375,59.553 118.510,59.499 140.400 L 59.400 180.200 30.100 180.303 L 0.800 180.405 0.800 200.003 L 0.800 219.600 30.198 219.600 L 59.596 219.600 59.698 259.900 L 59.800 300.200 160.000 300.200 L 260.200 300.200 260.200 200.000 L 260.200 99.800 160.088 99.699 C 80.207 99.619,59.937 99.700,59.787 100.099 " stroke="none" fill="#fcd404" fill-rule="evenodd"></path><path id="path1" d="M0.243 179.833 C -0.074 180.659,-0.074 219.341,0.243 220.167 C 0.603 221.107,59.600 221.140,59.600 220.200 C 59.600 219.672,56.067 219.600,30.200 219.600 L 0.800 219.600 0.800 200.003 L 0.800 180.405 30.067 180.303 C 53.051 180.222,59.369 180.093,59.500 179.700 C 59.784 178.848,0.570 178.981,0.243 179.833 M340.500 179.700 C 340.631 180.093,346.949 180.222,369.933 180.303 L 399.200 180.405 399.200 200.003 L 399.200 219.600 369.800 219.600 C 343.933 219.600,340.400 219.672,340.400 220.200 C 340.400 221.140,399.397 221.107,399.757 220.167 C 400.074 219.341,400.074 180.659,399.757 179.833 C 399.430 178.981,340.216 178.848,340.500 179.700 " stroke="none" fill="#d4c434" fill-rule="evenodd"></path><path id="path2" d="" stroke="none" fill="#100cc10" fill-rule="evenodd"></path><path id="path3" d="" stroke="none" fill="#100cc10" fill-rule="evenodd"></path><path id="path4" d="" stroke="none" fill="#100cc10" fill-rule="evenodd"></path></g></svg>